<svg width="86" height="86" viewBox="0 0 86 86" fill="none" xmlns="http://www.w3.org/2000/svg">
<path d="M41.6562 56.4375H38.9688V59.125H41.6562V56.4375Z" fill="#333333"/>
<path d="M82.6488 25.7167L72.5626 19.8042V10.75H73.9064C74.2627 10.75 74.6045 10.6084 74.8565 10.3564C75.1085 10.1044 75.2501 9.76263 75.2501 9.40625V4.03125C75.2501 3.67487 75.1085 3.33308 74.8565 3.08108C74.6045 2.82907 74.2627 2.6875 73.9064 2.6875H60.4689C60.1125 2.6875 59.7707 2.82907 59.5187 3.08108C59.2667 3.33308 59.1251 3.67487 59.1251 4.03125V9.40625C59.1251 9.76263 59.2667 10.1044 59.5187 10.3564C59.7707 10.6084 60.1125 10.75 60.4689 10.75H61.8126V13.502L43.6801 2.87294C43.4739 2.75198 43.2392 2.68822 43.0001 2.68822C42.7611 2.68822 42.5264 2.75198 42.3202 2.87294L3.35143 25.7167C3.14944 25.8352 2.98193 26.0044 2.8655 26.2076C2.74906 26.4107 2.68774 26.6408 2.68762 26.875V33.5938C2.68774 33.8304 2.75034 34.0627 2.86908 34.2674C2.98782 34.472 3.1585 34.6417 3.36384 34.7593C3.56919 34.8768 3.80194 34.938 4.03854 34.9368C4.27514 34.9355 4.50722 34.8718 4.7113 34.7521L8.06262 32.7875V67.9346C7.24828 68.4027 6.57133 69.0767 6.09964 69.889C5.62794 70.7012 5.37808 71.6232 5.37512 72.5625C5.37504 72.7998 5.3912 73.0369 5.42349 73.272C4.38865 73.8536 3.57596 74.7621 3.11275 75.8551C2.64953 76.9481 2.56195 78.1638 2.86373 79.3119C3.1655 80.46 3.83958 81.4756 4.78038 82.1995C5.72117 82.9235 6.87553 83.3149 8.06262 83.3125H77.9376C79.1247 83.3149 80.2791 82.9235 81.2198 82.1995C82.1606 81.4756 82.8347 80.46 83.1365 79.3119C83.4383 78.1638 83.3507 76.9481 82.8875 75.8551C82.4243 74.7621 81.6116 73.8536 80.5767 73.272C80.609 73.0369 80.6252 72.7998 80.6251 72.5625C80.6221 71.6232 80.3723 70.7012 79.9006 69.889C79.4289 69.0767 78.7519 68.4027 77.9376 67.9346V32.7875L81.2889 34.7521C81.493 34.8718 81.7251 34.9355 81.9617 34.9368C82.1983 34.938 82.431 34.8768 82.6364 34.7593C82.8417 34.6417 83.0124 34.472 83.1311 34.2674C83.2499 34.0627 83.3125 33.8304 83.3126 33.5938V26.875C83.3125 26.6408 83.2512 26.4107 83.1347 26.2076C83.0183 26.0044 82.8508 25.8352 82.6488 25.7167ZM61.8126 5.375H72.5626V8.0625H61.8126V5.375ZM64.5001 10.75H69.8751V18.228L64.5001 15.0769V10.75ZM8.06262 80.625C7.41227 80.6259 6.78381 80.3902 6.2944 79.9619C5.805 79.5336 5.48807 78.942 5.40271 78.2972C5.31735 77.6525 5.46939 76.9988 5.83048 76.4579C6.19156 75.917 6.73704 75.5259 7.36521 75.3575C7.54831 75.3078 7.71881 75.2199 7.8655 75.0996C8.01219 74.9793 8.13174 74.8293 8.21628 74.6594C8.30082 74.4896 8.34844 74.3038 8.356 74.1142C8.36356 73.9246 8.33089 73.7356 8.26015 73.5596C8.12264 73.2205 8.05605 72.8569 8.06449 72.4912C8.07292 72.1255 8.15621 71.7653 8.30921 71.433C8.4622 71.1007 8.68166 70.8032 8.95405 70.559C9.22644 70.3148 9.54598 70.1289 9.89296 70.013C10.2399 69.897 10.607 69.8534 10.9715 69.8847C11.336 69.9161 11.6902 70.0218 12.0123 70.1954C12.3343 70.3689 12.6174 70.6066 12.8441 70.8938C13.0707 71.181 13.2361 71.5115 13.3301 71.8651C13.3798 72.0482 13.4677 72.2187 13.588 72.3654C13.7083 72.5121 13.8583 72.6316 14.0282 72.7162C14.198 72.8007 14.3839 72.8483 14.5734 72.8559C14.763 72.8634 14.952 72.8308 15.1281 72.76C15.4795 72.6239 15.8554 72.5629 16.2319 72.5807C16.6083 72.5986 16.9768 72.6951 17.3137 72.8639C17.6506 73.0328 17.9484 73.2702 18.188 73.5611C18.4277 73.8519 18.6038 74.1896 18.7051 74.5526C18.7548 74.7357 18.8427 74.9062 18.963 75.0529C19.0833 75.1996 19.2333 75.3191 19.4032 75.4037C19.573 75.4882 19.7589 75.5358 19.9484 75.5434C20.138 75.5509 20.327 75.5183 20.5031 75.4475C20.8711 75.2981 21.2676 75.2321 21.6642 75.2542C22.0608 75.2764 22.4475 75.3862 22.7966 75.5757C23.1456 75.7652 23.4483 76.0297 23.6829 76.3503C23.9175 76.6708 24.0782 77.0393 24.1533 77.4293C24.2284 77.8194 24.2161 78.2212 24.1173 78.6059C24.0185 78.9906 23.8357 79.3486 23.582 79.6542C23.3283 79.9598 23.01 80.2054 22.65 80.3733C22.29 80.5411 21.8973 80.6271 21.5001 80.625H8.06262ZM26.8751 77.9375H59.1251C59.1307 78.8838 59.3886 79.8116 59.8722 80.625H26.128C26.6116 79.8116 26.8695 78.8838 26.8751 77.9375ZM49.7189 69.875H36.2814V45.6875H49.7189V69.875ZM52.4064 72.5625V75.25H33.5939V72.5625H52.4064ZM78.635 75.3575C79.2632 75.5259 79.8087 75.917 80.1697 76.4579C80.5308 76.9988 80.6829 77.6525 80.5975 78.2972C80.5122 78.942 80.1952 79.5336 79.7058 79.9619C79.2164 80.3902 78.588 80.6259 77.9376 80.625H64.5001C64.1029 80.6271 63.7102 80.5411 63.3502 80.3733C62.9902 80.2054 62.6719 79.9598 62.4182 79.6542C62.1645 79.3486 61.9817 78.9906 61.8829 78.6059C61.7841 78.2212 61.7719 77.8194 61.847 77.4293C61.9221 77.0393 62.0827 76.6708 62.3173 76.3503C62.5519 76.0297 62.8546 75.7652 63.2037 75.5757C63.5527 75.3862 63.9395 75.2764 64.336 75.2542C64.7326 75.2321 65.1292 75.2981 65.4972 75.4475C65.6732 75.5183 65.8622 75.5509 66.0518 75.5434C66.2414 75.5358 66.4272 75.4882 66.597 75.4037C66.7669 75.3191 66.9169 75.1996 67.0372 75.0529C67.1575 74.9062 67.2454 74.7357 67.2951 74.5526C67.3962 74.1895 67.5723 73.8516 67.8119 73.5607C68.0515 73.2698 68.3493 73.0322 68.6863 72.8633C69.0232 72.6945 69.3918 72.5981 69.7683 72.5803C70.1448 72.5625 70.5208 72.6237 70.8722 72.76C71.0482 72.8308 71.2372 72.8634 71.4268 72.8559C71.6164 72.8483 71.8022 72.8007 71.972 72.7162C72.1419 72.6316 72.2919 72.5121 72.4122 72.3654C72.5325 72.2187 72.6204 72.0482 72.6701 71.8651C72.7641 71.5115 72.9295 71.181 73.1562 70.8938C73.3828 70.6066 73.6659 70.3689 73.988 70.1954C74.31 70.0218 74.6642 69.9161 75.0287 69.8847C75.3932 69.8534 75.7603 69.897 76.1073 70.013C76.4542 70.1289 76.7738 70.3148 77.0462 70.559C77.3186 70.8032 77.538 71.1007 77.691 71.433C77.844 71.7653 77.9273 72.1255 77.9357 72.4912C77.9442 72.8569 77.8776 73.2205 77.7401 73.5596C77.6693 73.7356 77.6367 73.9246 77.6442 74.1142C77.6518 74.3038 77.6994 74.4896 77.7839 74.6594C77.8685 74.8293 77.988 74.9793 78.1347 75.0996C78.2814 75.2199 78.4519 75.3078 78.635 75.3575ZM75.2501 67.1875C74.3 67.1905 73.3677 67.4453 72.5482 67.9259C71.7286 68.4065 71.0511 69.0957 70.5846 69.9234C69.5231 69.7873 68.4451 69.9701 67.4879 70.4487C66.5307 70.9274 65.7376 71.68 65.2096 72.6109C64.9745 72.5786 64.7374 72.5624 64.5001 72.5625C63.5608 72.5655 62.6388 72.8153 61.8266 73.287C61.0143 73.7587 60.3403 74.4357 59.8722 75.25H55.0939V71.2188C55.0939 70.8624 54.9523 70.5206 54.7003 70.2686C54.4483 70.0166 54.1065 69.875 53.7501 69.875H52.4064V44.3438C52.4064 43.9874 52.2648 43.6456 52.0128 43.3936C51.7608 43.1416 51.419 43 51.0626 43H34.9376C34.5812 43 34.2394 43.1416 33.9874 43.3936C33.7354 43.6456 33.5939 43.9874 33.5939 44.3438V69.875H32.2501C31.8937 69.875 31.5519 70.0166 31.2999 70.2686C31.0479 70.5206 30.9064 70.8624 30.9064 71.2188V75.25H26.128C25.6599 74.4357 24.9859 73.7587 24.1737 73.287C23.3614 72.8153 22.4394 72.5655 21.5001 72.5625C21.2628 72.5624 21.0257 72.5786 20.7906 72.6109C20.2621 71.6805 19.4689 70.9283 18.5118 70.4497C17.5548 69.9712 16.477 69.788 15.4156 69.9234C14.9491 69.0957 14.2716 68.4065 13.452 67.9259C12.6325 67.4453 11.7002 67.1905 10.7501 67.1875V31.2126L43.0001 12.3074L75.2501 31.2126V67.1875ZM77.7481 29.5625L43.6801 9.59169C43.4739 9.47073 43.2392 9.40697 43.0001 9.40697C42.7611 9.40697 42.5264 9.47073 42.3202 9.59169L8.25208 29.5625L8.06262 29.6727L5.37512 31.2489V27.645L43.0001 5.58866L80.6251 27.645V31.2489L77.9376 29.6727L77.7481 29.5625Z" fill="#333333"/>
<path d="M30.0672 3.56452L11.2583 14.5983L12.6175 16.9152L31.4263 5.88144L30.0672 3.56452Z" fill="#333333"/>
<path d="M8.33188 16.3088L6.03931 17.6537L7.39847 19.9706L9.69105 18.6257L8.33188 16.3088Z" fill="#333333"/>
<path d="M34.9375 29.5625V36.2812C34.9375 36.6376 35.0791 36.9794 35.3311 37.2314C35.5831 37.4834 35.9249 37.625 36.2812 37.625H49.7188C50.0751 37.625 50.4169 37.4834 50.6689 37.2314C50.9209 36.9794 51.0625 36.6376 51.0625 36.2812V29.5625C51.0625 27.4242 50.2131 25.3735 48.701 23.8615C47.189 22.3494 45.1383 21.5 43 21.5C40.8617 21.5 38.811 22.3494 37.299 23.8615C35.7869 25.3735 34.9375 27.4242 34.9375 29.5625ZM41.6562 24.3783V28.2188H37.8158C38.0561 27.2947 38.5388 26.4516 39.2139 25.7764C39.8891 25.1013 40.7322 24.6186 41.6562 24.3783ZM37.625 30.9062H41.6562V34.9375H37.625V30.9062ZM44.3438 34.9375V30.9062H48.375V34.9375H44.3438ZM48.1842 28.2188H44.3438V24.3783C45.2678 24.6186 46.1109 25.1013 46.7861 25.7764C47.4612 26.4516 47.9439 27.2947 48.1842 28.2188Z" fill="#333333"/>
<path d="M57.7812 59.125H71.2188C71.5751 59.125 71.9169 58.9834 72.1689 58.7314C72.4209 58.4794 72.5625 58.1376 72.5625 57.7812V44.3438C72.5625 43.9874 72.4209 43.6456 72.1689 43.3936C71.9169 43.1416 71.5751 43 71.2188 43H57.7812C57.4249 43 57.0831 43.1416 56.8311 43.3936C56.5791 43.6456 56.4375 43.9874 56.4375 44.3438V57.7812C56.4375 58.1376 56.5791 58.4794 56.8311 58.7314C57.0831 58.9834 57.4249 59.125 57.7812 59.125ZM59.125 56.4375V53.75H69.875V56.4375H59.125ZM69.875 45.6875V51.0625H59.125V45.6875H69.875Z" fill="#333333"/>
<path d="M28.2188 43H14.7812C14.4249 43 14.0831 43.1416 13.8311 43.3936C13.5791 43.6456 13.4375 43.9874 13.4375 44.3438V57.7812C13.4375 58.1376 13.5791 58.4794 13.8311 58.7314C14.0831 58.9834 14.4249 59.125 14.7812 59.125H28.2188C28.5751 59.125 28.9169 58.9834 29.1689 58.7314C29.4209 58.4794 29.5625 58.1376 29.5625 57.7812V44.3438C29.5625 43.9874 29.4209 43.6456 29.1689 43.3936C28.9169 43.1416 28.5751 43 28.2188 43ZM26.875 45.6875V51.0625H16.125V45.6875H26.875ZM16.125 56.4375V53.75H26.875V56.4375H16.125Z" fill="#333333"/>
<path d="M83.3125 43H80.625V61.8125H83.3125V43Z" fill="#333333"/>
</svg>
