<svg width="31" height="30" viewBox="0 0 31 30" fill="none" xmlns="http://www.w3.org/2000/svg">
<path d="M26.459 0H4.54102C2.03731 0 0 1.97159 0 4.39453V25.6055C0 28.0284 2.03731 30 4.54102 30H26.459C28.9627 30 31 28.0284 31 25.6055V4.39453C31 1.97159 28.9627 0 26.459 0ZM15.5605 22.8516C11.0534 22.8516 7.38672 19.3032 7.38672 14.9414C7.38672 10.5796 11.0534 7.03125 15.5605 7.03125C20.0677 7.03125 23.7344 10.5796 23.7344 14.9414C23.7344 19.3032 20.0677 22.8516 15.5605 22.8516ZM24.6426 8.78906C23.1403 8.78906 21.918 7.6062 21.918 6.15234C21.918 4.69849 23.1403 3.51562 24.6426 3.51562C26.1449 3.51562 27.3672 4.69849 27.3672 6.15234C27.3672 7.6062 26.1449 8.78906 24.6426 8.78906Z" fill="white"/>
<path d="M24.6426 5.27344C24.1414 5.27344 23.7344 5.66734 23.7344 6.15234C23.7344 6.63734 24.1414 7.03125 24.6426 7.03125C25.1437 7.03125 25.5508 6.63734 25.5508 6.15234C25.5508 5.66734 25.1437 5.27344 24.6426 5.27344Z" fill="white"/>
<path d="M15.5605 8.78906C12.0555 8.78906 9.20312 11.5494 9.20312 14.9414C9.20312 18.3334 12.0555 21.0938 15.5605 21.0938C19.0656 21.0938 21.918 18.3334 21.918 14.9414C21.918 11.5494 19.0656 8.78906 15.5605 8.78906Z" fill="white"/>
</svg>
