<svg width="83" height="81" viewBox="0 0 83 81" fill="none" xmlns="http://www.w3.org/2000/svg">
<g clip-path="url(#clip0)">
<path d="M45.6722 8.1H48.4388C49.2028 8.1 49.8222 7.49558 49.8222 6.75C49.8222 6.00441 49.2028 5.39999 48.4388 5.39999H45.6722C44.9082 5.39999 44.2888 6.00441 44.2888 6.75C44.2888 7.49558 44.9082 8.1 45.6722 8.1Z" fill="#333333"/>
<path d="M9.7056 8.1H40.1389C40.9029 8.1 41.5223 7.49558 41.5223 6.75C41.5223 6.00441 40.9029 5.39999 40.1389 5.39999H9.7056C8.9416 5.39999 8.32227 6.00441 8.32227 6.75C8.32227 7.49558 8.9416 8.1 9.7056 8.1Z" fill="#333333"/>
<path d="M81.2311 39.2999C83.7828 36.5255 83.5468 32.2578 80.704 29.7675C77.8612 27.2772 73.488 27.5075 70.9363 30.2819C63.9726 37.8486 67.1543 34.3913 55.3558 47.2149V29.7H67.8058C70.0978 29.7 71.9558 27.8868 71.9558 25.65V9.45C71.9489 4.23368 67.6176 0.00669379 62.2725 0H9.7058C4.36037 0.00595166 0.0285596 4.23338 0.0224609 9.45V76.95C0.0224609 79.1868 1.88048 81 4.17246 81H51.2058C53.4978 81 55.3558 79.1868 55.3558 76.95V67.4204L81.2311 39.2999ZM72.9961 32.0854C73.9795 30.9827 75.4955 30.4827 76.9627 30.7772C78.43 31.0717 79.6207 32.1151 80.0783 33.5071C80.5358 34.8991 80.1892 36.4237 79.1713 37.4963L74.5509 42.525C70.7371 39.1838 72.1661 40.4352 68.3744 37.1115L72.9961 32.0854ZM69.1891 9.45V25.65C69.1891 26.3956 68.5698 27 67.8058 27H55.3558V9.45C55.3558 5.72208 58.4525 2.7 62.2725 2.7C66.0924 2.7 69.1891 5.72208 69.1891 9.45ZM51.2058 78.3H4.17246C3.40847 78.3 2.78913 77.6956 2.78913 76.95V9.45C2.7937 5.72393 5.88772 2.70446 9.7058 2.7H55.508C53.6415 4.47339 52.5888 6.90779 52.5891 9.45V50.22L47.0115 56.2802C46.7963 54.2231 45.0246 52.6566 42.9058 52.65V32.4H46.9728C47.8768 32.4169 48.7327 32.0037 49.2676 31.2924C49.8025 30.5811 49.9496 29.6603 49.662 28.8239L46.2465 19.3738C45.8349 18.272 44.7577 17.5418 43.556 17.55H33.9542C32.7526 17.5422 31.6757 18.2723 31.2637 19.3738L27.8468 28.8239C27.5591 29.6606 27.7064 30.5816 28.2417 31.293C28.7769 32.0044 29.6332 32.4173 30.5374 32.4H34.6058V52.65C32.3138 52.65 30.4558 54.4632 30.4558 56.7V59.4H26.3058V54.9747C27.1575 54.4948 27.6842 53.6098 27.6891 52.65V50.247C28.7796 49.2994 29.2746 47.8592 28.9902 46.4615C28.7058 45.0639 27.6845 43.9175 26.3058 43.4484V35.1C26.3058 32.1177 23.8284 29.7 20.7725 29.7H13.8558C10.7998 29.7 8.32246 32.1177 8.32246 35.1V43.4484C6.94312 43.9169 5.92121 45.0633 5.63676 46.4613C5.3523 47.8593 5.84785 49.2997 6.93913 50.247V52.65C6.9421 53.6103 7.46929 54.4962 8.32246 54.9747V59.4C7.55847 59.4 6.93913 60.0044 6.93913 60.75C6.93913 61.4956 7.55847 62.1 8.32246 62.1H43.022L38.9661 72.9H16.6225C15.8585 72.9 15.2391 73.5044 15.2391 74.25C15.2391 74.9956 15.8585 75.6 16.6225 75.6H40.1391C40.6738 75.5994 41.1596 75.296 41.3841 74.8224L52.5891 69.4224V76.95C52.5891 77.6956 51.9698 78.3 51.2058 78.3ZM50.9527 67.199L42.5254 71.2598L45.7596 62.6481L50.9527 67.199ZM30.5374 29.7C30.3991 29.7365 30.0615 30.78 33.9542 20.25L43.6376 20.273L46.9728 29.7H30.5374ZM37.3725 32.4H40.1391V52.65H37.3725V32.4ZM42.9058 55.35C43.6698 55.35 44.2891 55.9544 44.2891 56.7V59.2434C44.083 59.4675 45.328 59.4 33.2225 59.4V56.7C33.2225 55.9544 33.8418 55.35 34.6058 55.35H42.9058ZM24.9225 45.9C25.6865 45.9 26.3058 46.5044 26.3058 47.25C26.3058 47.9956 25.6865 48.6 24.9225 48.6C24.1585 48.6 23.5391 47.9956 23.5391 47.25C23.5391 46.5044 24.1585 45.9 24.9225 45.9ZM23.5391 43.4484C22.3675 43.8568 21.4455 44.7566 21.027 45.9H13.5999C13.1817 44.7569 12.2602 43.8572 11.0891 43.4484V35.1C11.0891 33.6088 12.3278 32.4 13.8558 32.4H20.7725C22.3005 32.4 23.5391 33.6088 23.5391 35.1V43.4484ZM9.7058 45.9C10.4698 45.9 11.0891 46.5044 11.0891 47.25C11.0891 47.9956 10.4698 48.6 9.7058 48.6C8.9418 48.6 8.32246 47.9956 8.32246 47.25C8.32246 46.5044 8.9418 45.9 9.7058 45.9ZM13.5999 48.6H21.027C21.6111 50.2124 23.1701 51.2929 24.9225 51.3V52.65H9.7058V51.3C11.4577 51.2923 13.0159 50.2119 13.5999 48.6ZM11.0891 55.35H13.557L12.727 59.4H11.0891V55.35ZM16.3721 55.35H18.2603L19.0903 59.4H15.5421L16.3721 55.35ZM21.0754 55.35H23.5391V59.4H21.9054L21.0754 55.35ZM53.2933 65.6208L47.118 60.21L66.5262 39.1163L72.7028 44.5284L53.2933 65.6208Z" fill="#333333"/>
<path d="M12.4721 72.9H8.32205C7.55806 72.9 6.93872 73.5044 6.93872 74.25C6.93872 74.9955 7.55806 75.5999 8.32205 75.5999H12.4721C13.236 75.5999 13.8554 74.9955 13.8554 74.25C13.8554 73.5044 13.236 72.9 12.4721 72.9Z" fill="#333333"/>
</g>
<defs>
<clipPath id="clip0">
<rect width="83" height="81" fill="white"/>
</clipPath>
</defs>
</svg>
