<svg width="186" height="101" viewBox="0 0 186 101" fill="none" xmlns="http://www.w3.org/2000/svg">
<path d="M38.208 38.704C40.768 39.5147 42.7733 40.88 44.224 42.8C45.6747 44.6773 46.4 47.0027 46.4 49.776C46.4 53.7013 44.864 56.7307 41.792 58.864C38.7627 60.9547 34.3253 62 28.48 62H5.312V17.2H27.2C32.6613 17.2 36.8427 18.2453 39.744 20.336C42.688 22.4267 44.16 25.264 44.16 28.848C44.16 31.024 43.6267 32.9653 42.56 34.672C41.536 36.3787 40.0853 37.7227 38.208 38.704ZM15.616 25.008V35.568H25.92C28.48 35.568 30.4213 35.12 31.744 34.224C33.0667 33.328 33.728 32.0053 33.728 30.256C33.728 28.5067 33.0667 27.2053 31.744 26.352C30.4213 25.456 28.48 25.008 25.92 25.008H15.616ZM27.712 54.192C30.4427 54.192 32.4907 53.744 33.856 52.848C35.264 51.952 35.968 50.5653 35.968 48.688C35.968 44.976 33.216 43.12 27.712 43.12H15.616V54.192H27.712Z" fill="white"/>
<path d="M51.816 75.4H31.016L27.048 85H16.424L36.392 40.2H46.632L66.664 85H55.784L51.816 75.4ZM48.552 67.528L41.448 50.376L34.344 67.528H48.552Z" fill="white"/>
<path d="M75.792 70.3H69.942L68.826 73H65.838L71.454 60.4H74.334L79.968 73H76.908L75.792 70.3ZM74.874 68.086L72.876 63.262L70.878 68.086H74.874ZM89.3033 73L86.8733 69.49H86.7293H84.1913V73H81.2753V60.4H86.7293C87.8453 60.4 88.8113 60.586 89.6273 60.958C90.4553 61.33 91.0913 61.858 91.5353 62.542C91.9793 63.226 92.2013 64.036 92.2013 64.972C92.2013 65.908 91.9733 66.718 91.5173 67.402C91.0733 68.074 90.4373 68.59 89.6093 68.95L92.4353 73H89.3033ZM89.2493 64.972C89.2493 64.264 89.0213 63.724 88.5653 63.352C88.1093 62.968 87.4433 62.776 86.5673 62.776H84.1913V67.168H86.5673C87.4433 67.168 88.1093 66.976 88.5653 66.592C89.0213 66.208 89.2493 65.668 89.2493 64.972ZM100.542 73.216C99.2576 73.216 98.0936 72.94 97.0496 72.388C96.0176 71.824 95.2016 71.05 94.6016 70.066C94.0136 69.07 93.7196 67.948 93.7196 66.7C93.7196 65.452 94.0136 64.336 94.6016 63.352C95.2016 62.356 96.0176 61.582 97.0496 61.03C98.0936 60.466 99.2636 60.184 100.56 60.184C101.652 60.184 102.636 60.376 103.512 60.76C104.4 61.144 105.144 61.696 105.744 62.416L103.872 64.144C103.02 63.16 101.964 62.668 100.704 62.668C99.9236 62.668 99.2276 62.842 98.6156 63.19C98.0036 63.526 97.5236 64 97.1756 64.612C96.8396 65.224 96.6716 65.92 96.6716 66.7C96.6716 67.48 96.8396 68.176 97.1756 68.788C97.5236 69.4 98.0036 69.88 98.6156 70.228C99.2276 70.564 99.9236 70.732 100.704 70.732C101.964 70.732 103.02 70.234 103.872 69.238L105.744 70.966C105.144 71.698 104.4 72.256 103.512 72.64C102.624 73.024 101.634 73.216 100.542 73.216ZM119.269 60.4V73H116.353V67.834H110.629V73H107.713V60.4H110.629V65.368H116.353V60.4H119.269ZM122.25 60.4H125.166V73H122.25V60.4ZM130.766 62.776H126.734V60.4H137.714V62.776H133.682V73H130.766V62.776ZM149.039 70.66V73H139.283V60.4H148.805V62.74H142.181V65.476H148.031V67.744H142.181V70.66H149.039ZM157.354 73.216C156.07 73.216 154.906 72.94 153.862 72.388C152.83 71.824 152.014 71.05 151.414 70.066C150.826 69.07 150.532 67.948 150.532 66.7C150.532 65.452 150.826 64.336 151.414 63.352C152.014 62.356 152.83 61.582 153.862 61.03C154.906 60.466 156.076 60.184 157.372 60.184C158.464 60.184 159.448 60.376 160.324 60.76C161.212 61.144 161.956 61.696 162.556 62.416L160.684 64.144C159.832 63.16 158.776 62.668 157.516 62.668C156.736 62.668 156.04 62.842 155.428 63.19C154.816 63.526 154.336 64 153.988 64.612C153.652 65.224 153.484 65.92 153.484 66.7C153.484 67.48 153.652 68.176 153.988 68.788C154.336 69.4 154.816 69.88 155.428 70.228C156.04 70.564 156.736 70.732 157.516 70.732C158.776 70.732 159.832 70.234 160.684 69.238L162.556 70.966C161.956 71.698 161.212 72.256 160.324 72.64C159.436 73.024 158.446 73.216 157.354 73.216ZM167.012 62.776H162.98V60.4H173.96V62.776H169.928V73H167.012V62.776ZM179.581 73.216C178.585 73.216 177.619 73.084 176.683 72.82C175.759 72.544 175.015 72.19 174.451 71.758L175.441 69.562C175.981 69.958 176.623 70.276 177.367 70.516C178.111 70.756 178.855 70.876 179.599 70.876C180.427 70.876 181.039 70.756 181.435 70.516C181.831 70.264 182.029 69.934 182.029 69.526C182.029 69.226 181.909 68.98 181.669 68.788C181.441 68.584 181.141 68.422 180.769 68.302C180.409 68.182 179.917 68.05 179.293 67.906C178.333 67.678 177.547 67.45 176.935 67.222C176.323 66.994 175.795 66.628 175.351 66.124C174.919 65.62 174.703 64.948 174.703 64.108C174.703 63.376 174.901 62.716 175.297 62.128C175.693 61.528 176.287 61.054 177.079 60.706C177.883 60.358 178.861 60.184 180.013 60.184C180.817 60.184 181.603 60.28 182.371 60.472C183.139 60.664 183.811 60.94 184.387 61.3L183.487 63.514C182.323 62.854 181.159 62.524 179.995 62.524C179.179 62.524 178.573 62.656 178.177 62.92C177.793 63.184 177.601 63.532 177.601 63.964C177.601 64.396 177.823 64.72 178.267 64.936C178.723 65.14 179.413 65.344 180.337 65.548C181.297 65.776 182.083 66.004 182.695 66.232C183.307 66.46 183.829 66.82 184.261 67.312C184.705 67.804 184.927 68.47 184.927 69.31C184.927 70.03 184.723 70.69 184.315 71.29C183.919 71.878 183.319 72.346 182.515 72.694C181.711 73.042 180.733 73.216 179.581 73.216Z" fill="white"/>
</svg>
