<svg width="83" height="81" viewBox="0 0 83 81" fill="none" xmlns="http://www.w3.org/2000/svg">
<g clip-path="url(#clip0)">
<path d="M76.1841 53.5208L70.2387 55.4549C69.6201 53.645 68.1723 52.2199 66.3231 51.6006C65.7869 48.1535 62.6505 45.6709 59.0836 45.8703C56.7753 42.2536 52.6046 40.1819 48.25 40.4887C47.7781 38.6886 46.3932 37.2506 44.5815 36.6793C45.8749 32.5728 48.1842 28.84 51.3053 25.8102C51.4721 25.9966 51.6284 26.1926 51.8049 26.3696C54.5899 29.1436 58.3951 30.7164 62.3744 30.7387C62.6547 30.7387 62.9365 30.7308 63.2168 30.7137C66.8028 30.5549 70.1329 28.855 72.3118 26.0711C78.3341 18.3402 82.7651 2.80397 82.9502 2.14616C83.0567 1.76964 82.9909 1.36654 82.7696 1.04095C82.5483 0.715372 82.1935 0.499424 81.7965 0.448799C80.9812 0.343277 61.7111 -2.01728 52.0777 5.92264C51.3972 6.48315 50.78 7.1128 50.2365 7.80115C46.4434 6.78105 42.4873 6.46828 38.5755 6.87914C38.1671 6.92501 37.8009 7.14587 37.5759 7.48157C37.3509 7.81728 37.2904 8.2332 37.411 8.61684C37.5036 8.90952 39.7015 15.8224 42.7255 19.2843C44.0656 20.7678 46.0077 21.5993 48.0339 21.5573C48.2323 21.5573 48.4333 21.5424 48.6342 21.5277C48.9203 22.2269 49.259 22.9045 49.6477 23.555C45.8845 27.1192 43.1628 31.5979 41.763 36.5301C40.4538 36.8008 39.2881 37.5217 38.4782 38.5614C34.6717 36.9205 30.2163 37.846 27.4244 40.8573C26.6101 40.5939 25.7581 40.4592 24.9002 40.4585C20.8543 40.4651 17.402 43.3158 16.7252 47.2085H14.1629C13.0091 45.5224 11.0692 44.5096 8.99174 44.5085H6.22501C2.78861 44.5121 0.00372852 47.2299 0 50.5835V74.8835C0.00372852 78.2371 2.78861 80.9549 6.22501 80.9585H8.99174C10.4001 80.9527 11.7638 80.4762 12.8561 79.6086H48.8315C50.8613 79.6087 52.852 79.0639 54.5857 78.0338L80.5152 62.6307C82.7633 61.2923 83.6243 58.5205 82.5159 56.1894C81.4076 53.8581 78.683 52.7097 76.1841 53.5208ZM50.2885 15.3357C50.3723 12.5055 51.6687 9.83928 53.8622 7.98593C59.1585 3.6222 68.1569 2.76189 74.4292 2.76189C76.6732 2.76189 78.5684 2.872 79.82 2.97088C78.5413 7.09872 74.7473 18.4834 70.1097 24.4378C68.414 26.5913 65.8288 27.9025 63.0485 28.0192C59.5845 28.1978 56.2099 26.9109 53.788 24.4873C53.6119 24.3108 53.454 24.1173 53.29 23.9294C56.1883 21.3642 59.4027 19.1611 62.8588 17.3707C63.545 17.0429 63.8291 16.2342 63.4932 15.5645C63.1573 14.8948 62.3286 14.6177 61.6424 14.9455C58.0589 16.7616 54.7224 19.0086 51.7109 21.6337C50.6823 19.6914 50.1919 17.5202 50.2885 15.3357ZM47.5252 15.2032C47.4719 16.4266 47.5733 17.6517 47.8275 18.8509C46.6853 18.8425 45.5993 18.3655 44.8355 17.5367C43.0119 15.0666 41.59 12.3367 40.62 9.4433C43.359 9.28794 46.1063 9.53869 48.7684 10.1869C48.0279 11.7656 47.6058 13.4686 47.5252 15.2032ZM12.45 74.8835C12.4478 76.7465 10.9007 78.2563 8.99174 78.2585H6.22501C4.31601 78.2563 2.76883 76.7465 2.76673 74.8835V50.5835C2.769 48.7205 4.31601 47.2107 6.22501 47.2085H8.99174C10.9007 47.2107 12.4479 48.7205 12.45 50.5835V74.8835ZM24.9 43.1583C25.7184 43.1633 26.5252 43.3476 27.2607 43.6975C27.8641 43.9769 28.5856 43.7964 28.9769 43.2685C31.1056 40.365 35.189 39.5924 38.2752 41.5091C38.6259 41.7261 39.0579 41.7779 39.452 41.65C39.8461 41.5222 40.1604 41.2284 40.3082 40.8498C40.6976 39.8418 41.67 39.1612 42.7733 39.1245C42.8102 39.1273 42.8477 39.1352 42.8845 39.1352C42.9192 39.1352 42.9503 39.1207 42.9847 39.1181C44.445 39.1613 45.616 40.3104 45.6525 41.7356C45.6472 41.7731 45.6329 41.9011 45.6303 41.9386C45.606 42.357 45.7822 42.7628 46.1072 43.0368C46.4323 43.3109 46.8693 43.4219 47.29 43.3374C47.8883 43.2181 48.4975 43.1582 49.1084 43.1582C52.4861 43.1536 55.5791 45.0035 57.1085 47.9426C57.393 48.4857 58.0156 48.7747 58.627 48.6472C59.8392 48.4049 61.0991 48.7004 62.0661 49.4541C63.0331 50.2077 63.607 51.3416 63.6327 52.549C63.6293 52.5938 63.6267 52.6393 63.6267 52.6755C63.6269 53.3474 64.1333 53.9168 64.8148 54.0117C66.1169 54.1994 67.1977 55.0902 67.6052 56.3115L50.5782 61.8509C50.1549 61.9885 49.7119 62.0586 49.2658 62.0584H48.471C49.1281 60.3002 48.9383 58.3465 47.954 56.7401L47.8311 56.5417C46.3259 54.1075 43.6279 52.6162 40.7145 52.6085H33.479C30.9266 52.6053 28.4509 51.7578 26.4556 50.2044C24.4547 48.651 22.0575 47.6597 19.5221 47.3374C20.1034 44.8949 22.3308 43.1642 24.9 43.1583ZM80.1897 58.7626C80.0642 59.4142 79.6594 59.9825 79.0771 60.3242L53.147 75.728C51.8467 76.5004 50.3537 76.9088 48.8315 76.9087H14.8343C15.0804 76.2602 15.2098 75.5752 15.2167 74.8837V50.5836C15.2067 50.3576 15.1834 50.1321 15.1469 49.9086H17.7045C20.2569 49.9117 22.7326 50.7592 24.7279 52.3126C27.2137 54.2486 30.2988 55.3047 33.479 55.3087H40.7145C42.6572 55.3142 44.4561 56.3089 45.4596 57.9322L45.5825 58.1306C46.3377 59.359 46.2567 60.9113 45.3776 62.0586H36.9696C34.2384 62.0559 31.5678 62.8452 29.2971 64.3261L28.2833 64.9854C27.8696 65.2518 27.6334 65.7139 27.6645 66.1966C27.6955 66.6794 27.9889 67.1091 28.4335 67.3228C28.8782 67.5367 29.406 67.5019 29.8173 67.2317L30.8311 66.5725C32.6481 65.3877 34.7845 64.7563 36.9698 64.7585H49.2658C50.0092 64.7585 50.7476 64.6416 51.453 64.4123L69.1025 58.6708C69.125 58.6719 69.144 58.6835 69.1667 58.6835C69.477 58.6781 69.7757 58.5689 70.0135 58.3744L77.0595 56.0823C78.0456 55.761 79.1316 56.0942 79.7518 56.9083C80.1624 57.437 80.3216 58.1119 80.1897 58.7626Z" fill="#333333"/>
<path d="M31.6101 48.5319C32.3588 48.6803 33.0891 48.2085 33.2414 47.478C33.4412 46.5365 34.2901 45.8608 35.2753 45.8589C35.724 45.8575 36.161 45.9994 36.5195 46.263C37.1303 46.7075 37.9943 46.5862 38.452 45.9918C38.9096 45.3974 38.7885 44.5537 38.1811 44.1049C37.3444 43.4882 36.3238 43.156 35.2753 43.159C32.9757 43.1641 30.9951 44.7423 30.5302 46.9401C30.3781 47.6707 30.8615 48.3832 31.6101 48.5319Z" fill="#333333"/>
<path d="M46.4155 48.9779C46.8586 49.1929 47.3854 49.1606 47.7974 48.8931C48.6207 48.3658 49.7101 48.474 50.408 49.1522C50.7265 49.4611 50.9327 49.8632 50.995 50.2972C51.0921 50.9618 51.6748 51.4557 52.3628 51.4566C52.4288 51.4565 52.4946 51.452 52.5601 51.4435C53.3165 51.338 53.8422 50.6544 53.7348 49.9162C53.4997 48.3127 52.4395 46.9382 50.9254 46.2742C49.4113 45.6102 47.6542 45.7493 46.2696 46.6427C45.8567 46.9086 45.6209 47.3696 45.651 47.8515C45.6808 48.3334 45.9725 48.7629 46.4155 48.9779Z" fill="#333333"/>
</g>
<defs>
<clipPath id="clip0">
<rect width="83" height="81" fill="white"/>
</clipPath>
</defs>
</svg>
