<svg width="30" height="30" viewBox="0 0 30 30" fill="none" xmlns="http://www.w3.org/2000/svg">
<g clip-path="url(#clip0)">
<path d="M11.192 27.3073C9.89475 27.3073 8.55946 27.2023 7.21616 26.9917C4.85022 26.6205 2.45521 25.3829 1.77749 25.0123L0 24.0405L1.92443 23.4076C4.02808 22.716 5.30775 22.2868 6.89183 21.6148C5.30569 20.8467 4.08324 19.4649 3.49478 17.6787L3.04709 16.3196L3.41422 16.3757C3.06609 16.0248 2.7912 15.6687 2.57811 15.3448C1.82029 14.1938 1.41906 12.7873 1.50443 11.582L1.58866 10.3957L2.29888 10.6708C1.99927 10.105 1.78275 9.50078 1.6555 8.86746C1.34536 7.32296 1.60491 5.68211 2.38654 4.24725L3.00521 3.11154L3.83261 4.10534C6.44941 7.24881 9.76383 9.11351 13.6976 9.65939C13.5369 8.55183 13.6573 7.48295 14.0558 6.52485C14.5197 5.40928 15.3451 4.46331 16.4419 3.78903C17.66 3.04036 19.1372 2.67758 20.6013 2.76753C22.1548 2.86297 23.5651 3.44502 24.6853 4.45187C25.2323 4.30973 25.6354 4.15799 26.1801 3.95291C26.5078 3.82954 26.8795 3.68947 27.3446 3.52925L29.0585 2.93873L27.9409 6.13072C28.0146 6.12454 28.0906 6.11927 28.17 6.11584L30.0001 6.03299L28.9184 7.51133C28.8564 7.59602 28.8406 7.62005 28.8186 7.65324C28.7314 7.78462 28.6229 7.94804 27.1382 9.93062C26.7665 10.4271 26.5809 11.0737 26.6154 11.7516C26.747 14.3279 26.4309 16.6588 25.6754 18.6794C24.9608 20.591 23.8535 22.2312 22.3846 23.5543C20.5668 25.1913 18.2489 26.3121 15.495 26.8853C14.1442 27.1663 12.6935 27.3073 11.192 27.3073Z" fill="white"/>
</g>
<defs>
<clipPath id="clip0">
<rect width="30" height="30" fill="white"/>
</clipPath>
</defs>
</svg>
